# xmcd
#
# Track frame offsets:
#	150
#	15598
#	34291
#	50014
#	64921
#	78864
#	97419
#	114063
#	130024
#	147098
#
# Disc length: 2150 seconds
#
# Revision: 1
# Processed by: cddbd v1.5.2PL0 Copyright (c) Steve Scherf et al.
# Submitted via: audiograbber 1.83.01
#
DISCID=8208640a
DTITLE=Tanya Tucker - Tear me Apart
DYEAR=1979
DGENRE=Country
TTITLE0=Blind Love
TTITLE1=Lay Back In The Arms Of Someone
TTITLE2=Somebody Must Have Loved You Right Last Night
TTITLE3=I Left My Heart In San Francisco
TTITLE4=Tear Me Apart
TTITLE5=Crossfire Of Desire
TTITLE6=Better Late Than Never
TTITLE7=I've Never Said No Before
TTITLE8=Shady Streets
TTITLE9=By Day By Day
EXTD=
EXTT0=
EXTT1=
EXTT2=
EXTT3=
EXTT4=
EXTT5=
EXTT6=
EXTT7=
EXTT8=
EXTT9=
PLAYORDER=
